<svg width="106" height="25" viewBox="0 0 106 25" fill="none" xmlns="http://www.w3.org/2000/svg">
<path d="M9.296 18L5.6 11.472H4.016V18H0.656V1.248H6.944C8.24 1.248 9.344 1.48 10.256 1.944C11.168 2.392 11.848 3.008 12.296 3.792C12.76 4.56 12.992 5.424 12.992 6.384C12.992 7.488 12.672 8.488 12.032 9.384C11.392 10.264 10.44 10.872 9.176 11.208L13.184 18H9.296ZM4.016 8.952H6.824C7.736 8.952 8.416 8.736 8.864 8.304C9.312 7.856 9.536 7.24 9.536 6.456C9.536 5.688 9.312 5.096 8.864 4.68C8.416 4.248 7.736 4.032 6.824 4.032H4.016V8.952ZM15.167 11.304C15.167 9.96 15.431 8.768 15.959 7.728C16.503 6.688 17.231 5.888 18.143 5.328C19.071 4.768 20.103 4.488 21.239 4.488C22.231 4.488 23.095 4.688 23.831 5.088C24.583 5.488 25.183 5.992 25.631 6.6V4.704H29.015V18H25.631V16.056C25.199 16.68 24.599 17.2 23.831 17.616C23.079 18.016 22.207 18.216 21.215 18.216C20.095 18.216 19.071 17.928 18.143 17.352C17.231 16.776 16.503 15.968 15.959 14.928C15.431 13.872 15.167 12.664 15.167 11.304ZM25.631 11.352C25.631 10.536 25.471 9.84 25.151 9.264C24.831 8.672 24.399 8.224 23.855 7.92C23.311 7.6 22.727 7.44 22.103 7.44C21.479 7.44 20.903 7.592 20.375 7.896C19.847 8.2 19.415 8.648 19.079 9.24C18.759 9.816 18.599 10.504 18.599 11.304C18.599 12.104 18.759 12.808 19.079 13.416C19.415 14.008 19.847 14.464 20.375 14.784C20.919 15.104 21.495 15.264 22.103 15.264C22.727 15.264 23.311 15.112 23.855 14.808C24.399 14.488 24.831 14.04 25.151 13.464C25.471 12.872 25.631 12.168 25.631 11.352ZM35.6566 6.624C36.0886 6.016 36.6806 5.512 37.4326 5.112C38.2006 4.696 39.0726 4.488 40.0486 4.488C41.1846 4.488 42.2086 4.768 43.1206 5.328C44.0486 5.888 44.7766 6.688 45.3046 7.728C45.8486 8.752 46.1206 9.944 46.1206 11.304C46.1206 12.664 45.8486 13.872 45.3046 14.928C44.7766 15.968 44.0486 16.776 43.1206 17.352C42.2086 17.928 41.1846 18.216 40.0486 18.216C39.0726 18.216 38.2086 18.016 37.4566 17.616C36.7206 17.216 36.1206 16.712 35.6566 16.104V24.336H32.2966V4.704H35.6566V6.624ZM42.6886 11.304C42.6886 10.504 42.5206 9.816 42.1846 9.24C41.8646 8.648 41.4326 8.2 40.8886 7.896C40.3606 7.592 39.7846 7.44 39.1606 7.44C38.5526 7.44 37.9766 7.6 37.4326 7.92C36.9046 8.224 36.4726 8.672 36.1366 9.264C35.8166 9.856 35.6566 10.552 35.6566 11.352C35.6566 12.152 35.8166 12.848 36.1366 13.44C36.4726 14.032 36.9046 14.488 37.4326 14.808C37.9766 15.112 38.5526 15.264 39.1606 15.264C39.7846 15.264 40.3606 15.104 40.8886 14.784C41.4326 14.464 41.8646 14.008 42.1846 13.416C42.5206 12.824 42.6886 12.12 42.6886 11.304ZM56.4343 18L51.9223 12.336V18H48.5623V0.24H51.9223V10.344L56.3863 4.704H60.7543L54.8983 11.376L60.8023 18H56.4343ZM70.0659 4.512C71.0739 4.512 71.9699 4.736 72.7539 5.184C73.5379 5.616 74.1459 6.264 74.5779 7.128C75.0259 7.976 75.2499 9 75.2499 10.2V18H71.8899V10.656C71.8899 9.6 71.6259 8.792 71.0979 8.232C70.5699 7.656 69.8499 7.368 68.9379 7.368C68.0099 7.368 67.2739 7.656 66.7299 8.232C66.2019 8.792 65.9379 9.6 65.9379 10.656V18H62.5779V0.24H65.9379V6.36C66.3699 5.784 66.9459 5.336 67.6659 5.016C68.3859 4.68 69.1859 4.512 70.0659 4.512ZM90.8051 11.064C90.8051 11.544 90.7731 11.976 90.7091 12.36H80.9891C81.0691 13.32 81.4051 14.072 81.9971 14.616C82.5891 15.16 83.3171 15.432 84.1811 15.432C85.4291 15.432 86.3171 14.896 86.8451 13.824H90.4691C90.0851 15.104 89.3491 16.16 88.2611 16.992C87.1731 17.808 85.8371 18.216 84.2531 18.216C82.9731 18.216 81.8211 17.936 80.7971 17.376C79.7891 16.8 78.9971 15.992 78.4211 14.952C77.8611 13.912 77.5811 12.712 77.5811 11.352C77.5811 9.976 77.8611 8.768 78.4211 7.728C78.9811 6.688 79.7651 5.888 80.7731 5.328C81.7811 4.768 82.9411 4.488 84.2531 4.488C85.5171 4.488 86.6451 4.76 87.6371 5.304C88.6451 5.848 89.4211 6.624 89.9651 7.632C90.5251 8.624 90.8051 9.768 90.8051 11.064ZM87.3251 10.104C87.3091 9.24 86.9971 8.552 86.3891 8.04C85.7811 7.512 85.0371 7.248 84.1571 7.248C83.3251 7.248 82.6211 7.504 82.0451 8.016C81.4851 8.512 81.1411 9.208 81.0131 10.104H87.3251ZM100.626 4.512C102.21 4.512 103.49 5.016 104.466 6.024C105.442 7.016 105.93 8.408 105.93 10.2V18H102.57V10.656C102.57 9.6 102.306 8.792 101.778 8.232C101.25 7.656 100.53 7.368 99.6176 7.368C98.6896 7.368 97.9536 7.656 97.4096 8.232C96.8816 8.792 96.6176 9.6 96.6176 10.656V18H93.2576V4.704H96.6176V6.36C97.0656 5.784 97.6336 5.336 98.3216 5.016C99.0256 4.68 99.7936 4.512 100.626 4.512Z" fill="black"/>
</svg>
